<svg id="visual" viewBox="0 0 900 450" width="900" height="450" xmlns="http://www.w3.org/2000/svg" xmlns:xlink="http://www.w3.org/1999/xlink" version="1.1"><path d="M0 6L37.5 6.7C75 7.3 150 8.7 225 12.3C300 16 375 22 450 24.3C525 26.7 600 25.3 675 22.3C750 19.3 825 14.7 862.5 12.3L900 10L900 0L862.5 0C825 0 750 0 675 0C600 0 525 0 450 0C375 0 300 0 225 0C150 0 75 0 37.5 0L0 0Z" fill="#f8ffe5"></path><path d="M0 15L37.5 17.2C75 19.3 150 23.7 225 30.3C300 37 375 46 450 46.8C525 47.7 600 40.3 675 38.2C750 36 825 39 862.5 40.5L900 42L900 8L862.5 10.3C825 12.7 750 17.3 675 20.3C600 23.3 525 24.7 450 22.3C375 20 300 14 225 10.3C150 6.7 75 5.3 37.5 4.7L0 4Z" fill="#f2f3cf"></path><path d="M0 64L37.5 61C75 58 150 52 225 57.3C300 62.7 375 79.3 450 81.7C525 84 600 72 675 65.2C750 58.3 825 56.7 862.5 55.8L900 55L900 40L862.5 38.5C825 37 750 34 675 36.2C600 38.3 525 45.7 450 44.8C375 44 300 35 225 28.3C150 21.7 75 17.3 37.5 15.2L0 13Z" fill="#efe7ba"></path><path d="M0 73L37.5 70C75 67 150 61 225 69.3C300 77.7 375 100.3 450 102.7C525 105 600 87 675 81.7C750 76.3 825 83.7 862.5 87.3L900 91L900 53L862.5 53.8C825 54.7 750 56.3 675 63.2C600 70 525 82 450 79.7C375 77.3 300 60.7 225 55.3C150 50 75 56 37.5 59L0 62Z" fill="#eed9a5"></path><path d="M0 109L37.5 105.3C75 101.7 150 94.3 225 101.8C300 109.3 375 131.7 450 130.8C525 130 600 106 675 97.8C750 89.7 825 97.3 862.5 101.2L900 105L900 89L862.5 85.3C825 81.7 750 74.3 675 79.7C600 85 525 103 450 100.7C375 98.3 300 75.7 225 67.3C150 59 75 65 37.5 68L0 71Z" fill="#eeca92"></path><path d="M0 186L37.5 181.5C75 177 150 168 225 171C300 174 375 189 450 187.5C525 186 600 168 675 159C750 150 825 150 862.5 150L900 150L900 103L862.5 99.2C825 95.3 750 87.7 675 95.8C600 104 525 128 450 128.8C375 129.7 300 107.3 225 99.8C150 92.3 75 99.7 37.5 103.3L0 107Z" fill="#f0bb82"></path><path d="M0 316L37.5 310.8C75 305.7 150 295.3 225 281.2C300 267 375 249 450 233.2C525 217.3 600 203.7 675 211.2C750 218.7 825 247.3 862.5 261.7L900 276L900 148L862.5 148C825 148 750 148 675 157C600 166 525 184 450 185.5C375 187 300 172 225 169C150 166 75 175 37.5 179.5L0 184Z" fill="#f2ab75"></path><path d="M0 352L37.5 348.3C75 344.7 150 337.3 225 323.8C300 310.3 375 290.7 450 269.7C525 248.7 600 226.3 675 233.2C750 240 825 276 862.5 294L900 312L900 274L862.5 259.7C825 245.3 750 216.7 675 209.2C600 201.7 525 215.3 450 231.2C375 247 300 265 225 279.2C150 293.3 75 303.7 37.5 308.8L0 314Z" fill="#f4996c"></path><path d="M0 393L37.5 391.5C75 390 150 387 225 383.2C300 379.3 375 374.7 450 375.3C525 376 600 382 675 381.3C750 380.7 825 373.3 862.5 369.7L900 366L900 310L862.5 292C825 274 750 238 675 231.2C600 224.3 525 246.7 450 267.7C375 288.7 300 308.3 225 321.8C150 335.3 75 342.7 37.5 346.3L0 350Z" fill="#f58767"></path><path d="M0 402L37.5 403.5C75 405 150 408 225 405C300 402 375 393 450 390C525 387 600 390 675 387.7C750 385.3 825 377.7 862.5 373.8L900 370L900 364L862.5 367.7C825 371.3 750 378.7 675 379.3C600 380 525 374 450 373.3C375 372.7 300 377.3 225 381.2C150 385 75 388 37.5 389.5L0 391Z" fill="#f57366"></path><path d="M0 411L37.5 414C75 417 150 423 225 423.7C300 424.3 375 419.7 450 418.2C525 416.7 600 418.3 675 413.2C750 408 825 396 862.5 390L900 384L900 368L862.5 371.8C825 375.7 750 383.3 675 385.7C600 388 525 385 450 388C375 391 300 400 225 403C150 406 75 403 37.5 401.5L0 400Z" fill="#f35e69"></path><path d="M0 451L37.5 451C75 451 150 451 225 451C300 451 375 451 450 451C525 451 600 451 675 451C750 451 825 451 862.5 451L900 451L900 382L862.5 388C825 394 750 406 675 411.2C600 416.3 525 414.7 450 416.2C375 417.7 300 422.3 225 421.7C150 421 75 415 37.5 412L0 409Z" fill="#ef476f"></path></svg>