<svg id="visual" viewBox="0 0 960 540" width="960" height="540" xmlns="http://www.w3.org/2000/svg" xmlns:xlink="http://www.w3.org/1999/xlink" version="1.1"><path d="M0 28L22.8 28C45.7 28 91.3 28 137 27.2C182.7 26.3 228.3 24.7 274 22C319.7 19.3 365.3 15.7 411.2 15.7C457 15.7 503 19.3 548.8 22C594.7 24.7 640.3 26.3 686 24.5C731.7 22.7 777.3 17.3 823 14.7C868.7 12 914.3 12 937.2 12L960 12L960 0L937.2 0C914.3 0 868.7 0 823 0C777.3 0 731.7 0 686 0C640.3 0 594.7 0 548.8 0C503 0 457 0 411.2 0C365.3 0 319.7 0 274 0C228.3 0 182.7 0 137 0C91.3 0 45.7 0 22.8 0L0 0Z" fill="#f8ffe5"></path><path d="M0 55L22.8 56.8C45.7 58.7 91.3 62.3 137 65C182.7 67.7 228.3 69.3 274 66.7C319.7 64 365.3 57 411.2 53.5C457 50 503 50 548.8 54.5C594.7 59 640.3 68 686 68C731.7 68 777.3 59 823 53.5C868.7 48 914.3 46 937.2 45L960 44L960 10L937.2 10C914.3 10 868.7 10 823 12.7C777.3 15.3 731.7 20.7 686 22.5C640.3 24.3 594.7 22.7 548.8 20C503 17.3 457 13.7 411.2 13.7C365.3 13.7 319.7 17.3 274 20C228.3 22.7 182.7 24.3 137 25.2C91.3 26 45.7 26 22.8 26L0 26Z" fill="#f2f3cf"></path><path d="M0 125L22.8 122.3C45.7 119.7 91.3 114.3 137 111.7C182.7 109 228.3 109 274 103.7C319.7 98.3 365.3 87.7 411.2 84C457 80.3 503 83.7 548.8 94.3C594.7 105 640.3 123 686 127.5C731.7 132 777.3 123 823 113.2C868.7 103.3 914.3 92.7 937.2 87.3L960 82L960 42L937.2 43C914.3 44 868.7 46 823 51.5C777.3 57 731.7 66 686 66C640.3 66 594.7 57 548.8 52.5C503 48 457 48 411.2 51.5C365.3 55 319.7 62 274 64.7C228.3 67.3 182.7 65.7 137 63C91.3 60.3 45.7 56.7 22.8 54.8L0 53Z" fill="#efe7ba"></path><path d="M0 147L22.8 142.5C45.7 138 91.3 129 137 124.5C182.7 120 228.3 120 274 116.3C319.7 112.7 365.3 105.3 411.2 103.5C457 101.7 503 105.3 548.8 116.2C594.7 127 640.3 145 686 150.3C731.7 155.7 777.3 148.3 823 136.7C868.7 125 914.3 109 937.2 101L960 93L960 80L937.2 85.3C914.3 90.7 868.7 101.3 823 111.2C777.3 121 731.7 130 686 125.5C640.3 121 594.7 103 548.8 92.3C503 81.7 457 78.3 411.2 82C365.3 85.7 319.7 96.3 274 101.7C228.3 107 182.7 107 137 109.7C91.3 112.3 45.7 117.7 22.8 120.3L0 123Z" fill="#eed9a5"></path><path d="M0 163L22.8 161.2C45.7 159.3 91.3 155.7 137 153.8C182.7 152 228.3 152 274 145.7C319.7 139.3 365.3 126.7 411.2 123.2C457 119.7 503 125.3 548.8 136.2C594.7 147 640.3 163 686 168.3C731.7 173.7 777.3 168.3 823 159.3C868.7 150.3 914.3 137.7 937.2 131.3L960 125L960 91L937.2 99C914.3 107 868.7 123 823 134.7C777.3 146.3 731.7 153.7 686 148.3C640.3 143 594.7 125 548.8 114.2C503 103.3 457 99.7 411.2 101.5C365.3 103.3 319.7 110.7 274 114.3C228.3 118 182.7 118 137 122.5C91.3 127 45.7 136 22.8 140.5L0 145Z" fill="#eeca92"></path><path d="M0 206L22.8 203.3C45.7 200.7 91.3 195.3 137 194.5C182.7 193.7 228.3 197.3 274 194.7C319.7 192 365.3 183 411.2 181.2C457 179.3 503 184.7 548.8 196.3C594.7 208 640.3 226 686 235C731.7 244 777.3 244 823 238.7C868.7 233.3 914.3 222.7 937.2 217.3L960 212L960 123L937.2 129.3C914.3 135.7 868.7 148.3 823 157.3C777.3 166.3 731.7 171.7 686 166.3C640.3 161 594.7 145 548.8 134.2C503 123.3 457 117.7 411.2 121.2C365.3 124.7 319.7 137.3 274 143.7C228.3 150 182.7 150 137 151.8C91.3 153.7 45.7 157.3 22.8 159.2L0 161Z" fill="#f0bb82"></path><path d="M0 271L22.8 276.3C45.7 281.7 91.3 292.3 137 298.7C182.7 305 228.3 307 274 298C319.7 289 365.3 269 411.2 262.7C457 256.3 503 263.7 548.8 275.5C594.7 287.3 640.3 303.7 686 310C731.7 316.3 777.3 312.7 823 306.3C868.7 300 914.3 291 937.2 286.5L960 282L960 210L937.2 215.3C914.3 220.7 868.7 231.3 823 236.7C777.3 242 731.7 242 686 233C640.3 224 594.7 206 548.8 194.3C503 182.7 457 177.3 411.2 179.2C365.3 181 319.7 190 274 192.7C228.3 195.3 182.7 191.7 137 192.5C91.3 193.3 45.7 198.7 22.8 201.3L0 204Z" fill="#f2ab75"></path><path d="M0 303L22.8 309.3C45.7 315.7 91.3 328.3 137 332.8C182.7 337.3 228.3 333.7 274 323.8C319.7 314 365.3 298 411.2 290.8C457 283.7 503 285.3 548.8 294.3C594.7 303.3 640.3 319.7 686 328.7C731.7 337.7 777.3 339.3 823 334.8C868.7 330.3 914.3 319.7 937.2 314.3L960 309L960 280L937.2 284.5C914.3 289 868.7 298 823 304.3C777.3 310.7 731.7 314.3 686 308C640.3 301.7 594.7 285.3 548.8 273.5C503 261.7 457 254.3 411.2 260.7C365.3 267 319.7 287 274 296C228.3 305 182.7 303 137 296.7C91.3 290.3 45.7 279.7 22.8 274.3L0 269Z" fill="#f4996c"></path><path d="M0 449L22.8 450C45.7 451 91.3 453 137 449.5C182.7 446 228.3 437 274 434.2C319.7 431.3 365.3 434.7 411.2 434.7C457 434.7 503 431.3 548.8 437.7C594.7 444 640.3 460 686 466.2C731.7 472.3 777.3 468.7 823 463.3C868.7 458 914.3 451 937.2 447.5L960 444L960 307L937.2 312.3C914.3 317.7 868.7 328.3 823 332.8C777.3 337.3 731.7 335.7 686 326.7C640.3 317.7 594.7 301.3 548.8 292.3C503 283.3 457 281.7 411.2 288.8C365.3 296 319.7 312 274 321.8C228.3 331.7 182.7 335.3 137 330.8C91.3 326.3 45.7 313.7 22.8 307.3L0 301Z" fill="#f58767"></path><path d="M0 492L22.8 493.8C45.7 495.7 91.3 499.3 137 497.7C182.7 496 228.3 489 274 485.5C319.7 482 365.3 482 411.2 480.2C457 478.3 503 474.7 548.8 478.2C594.7 481.7 640.3 492.3 686 496.8C731.7 501.3 777.3 499.7 823 496.2C868.7 492.7 914.3 487.3 937.2 484.7L960 482L960 442L937.2 445.5C914.3 449 868.7 456 823 461.3C777.3 466.7 731.7 470.3 686 464.2C640.3 458 594.7 442 548.8 435.7C503 429.3 457 432.7 411.2 432.7C365.3 432.7 319.7 429.3 274 432.2C228.3 435 182.7 444 137 447.5C91.3 451 45.7 449 22.8 448L0 447Z" fill="#f57366"></path><path d="M0 514L22.8 515.8C45.7 517.7 91.3 521.3 137 521.3C182.7 521.3 228.3 517.7 274 514C319.7 510.3 365.3 506.7 411.2 504.8C457 503 503 503 548.8 505.7C594.7 508.3 640.3 513.7 686 516.3C731.7 519 777.3 519 823 515.5C868.7 512 914.3 505 937.2 501.5L960 498L960 480L937.2 482.7C914.3 485.3 868.7 490.7 823 494.2C777.3 497.7 731.7 499.3 686 494.8C640.3 490.3 594.7 479.7 548.8 476.2C503 472.7 457 476.3 411.2 478.2C365.3 480 319.7 480 274 483.5C228.3 487 182.7 494 137 495.7C91.3 497.3 45.7 493.7 22.8 491.8L0 490Z" fill="#f35e69"></path><path d="M0 541L22.8 541C45.7 541 91.3 541 137 541C182.7 541 228.3 541 274 541C319.7 541 365.3 541 411.2 541C457 541 503 541 548.8 541C594.7 541 640.3 541 686 541C731.7 541 777.3 541 823 541C868.7 541 914.3 541 937.2 541L960 541L960 496L937.2 499.5C914.3 503 868.7 510 823 513.5C777.3 517 731.7 517 686 514.3C640.3 511.7 594.7 506.3 548.8 503.7C503 501 457 501 411.2 502.8C365.3 504.7 319.7 508.3 274 512C228.3 515.7 182.7 519.3 137 519.3C91.3 519.3 45.7 515.7 22.8 513.8L0 512Z" fill="#ef476f"></path></svg>