<svg id="visual" viewBox="0 0 540 960" width="540" height="960" xmlns="http://www.w3.org/2000/svg" xmlns:xlink="http://www.w3.org/1999/xlink" version="1.1"><rect x="0" y="0" width="540" height="960" fill="#f8ffe5"></rect><defs><linearGradient id="grad1_0" x1="0%" y1="0%" x2="100%" y2="100%"><stop offset="30%" stop-color="#ef476f" stop-opacity="1"></stop><stop offset="70%" stop-color="#ef476f" stop-opacity="1"></stop></linearGradient></defs><defs><linearGradient id="grad1_1" x1="0%" y1="0%" x2="100%" y2="100%"><stop offset="30%" stop-color="#ef476f" stop-opacity="1"></stop><stop offset="70%" stop-color="#f5936a" stop-opacity="1"></stop></linearGradient></defs><defs><linearGradient id="grad1_2" x1="0%" y1="0%" x2="100%" y2="100%"><stop offset="30%" stop-color="#eecf98" stop-opacity="1"></stop><stop offset="70%" stop-color="#f5936a" stop-opacity="1"></stop></linearGradient></defs><defs><linearGradient id="grad1_3" x1="0%" y1="0%" x2="100%" y2="100%"><stop offset="30%" stop-color="#eecf98" stop-opacity="1"></stop><stop offset="70%" stop-color="#f8ffe5" stop-opacity="1"></stop></linearGradient></defs><defs><linearGradient id="grad2_0" x1="0%" y1="0%" x2="100%" y2="100%"><stop offset="30%" stop-color="#ef476f" stop-opacity="1"></stop><stop offset="70%" stop-color="#ef476f" stop-opacity="1"></stop></linearGradient></defs><defs><linearGradient id="grad2_1" x1="0%" y1="0%" x2="100%" y2="100%"><stop offset="30%" stop-color="#f5936a" stop-opacity="1"></stop><stop offset="70%" stop-color="#ef476f" stop-opacity="1"></stop></linearGradient></defs><defs><linearGradient id="grad2_2" x1="0%" y1="0%" x2="100%" y2="100%"><stop offset="30%" stop-color="#f5936a" stop-opacity="1"></stop><stop offset="70%" stop-color="#eecf98" stop-opacity="1"></stop></linearGradient></defs><defs><linearGradient id="grad2_3" x1="0%" y1="0%" x2="100%" y2="100%"><stop offset="30%" stop-color="#f8ffe5" stop-opacity="1"></stop><stop offset="70%" stop-color="#eecf98" stop-opacity="1"></stop></linearGradient></defs><g transform="translate(540, 0)"><path d="M0 189C-29 177.4 -58.1 165.9 -87.5 151.6C-116.9 137.3 -146.7 120.2 -163.7 94.5C-180.7 68.8 -184.8 34.4 -189 0L0 0Z" fill="#efe9bd"></path><path d="M0 141.8C-21.8 133.1 -43.6 124.4 -65.6 113.7C-87.7 102.9 -110 90.2 -122.8 70.9C-135.5 51.6 -138.6 25.8 -141.7 0L0 0Z" fill="#f1b37b"></path><path d="M0 94.5C-14.5 88.7 -29 82.9 -43.7 75.8C-58.5 68.6 -73.4 60.1 -81.8 47.3C-90.3 34.4 -92.4 17.2 -94.5 0L0 0Z" fill="#f57066"></path><path d="M0 47.3C-7.3 44.4 -14.5 41.5 -21.9 37.9C-29.2 34.3 -36.7 30.1 -40.9 23.6C-45.2 17.2 -46.2 8.6 -47.2 0L0 0Z" fill="#ef476f"></path></g><g transform="translate(0, 960)"><path d="M0 -189C35.7 -185.6 71.3 -182.1 94.5 -163.7C117.7 -145.2 128.4 -111.8 142 -82C155.7 -52.2 172.3 -26.1 189 0L0 0Z" fill="#efe9bd"></path><path d="M0 -141.7C26.7 -139.2 53.5 -136.6 70.9 -122.8C88.3 -108.9 96.3 -83.8 106.5 -61.5C116.8 -39.2 129.3 -19.6 141.8 0L0 0Z" fill="#f1b37b"></path><path d="M0 -94.5C17.8 -92.8 35.7 -91.1 47.2 -81.8C58.8 -72.6 64.2 -55.9 71 -41C77.8 -26.1 86.2 -13.1 94.5 0L0 0Z" fill="#f57066"></path><path d="M0 -47.2C8.9 -46.4 17.8 -45.5 23.6 -40.9C29.4 -36.3 32.1 -27.9 35.5 -20.5C38.9 -13.1 43.1 -6.5 47.3 0L0 0Z" fill="#ef476f"></path></g></svg>